<svg width="374" height="306" viewBox="0 0 374 306" fill="none" xmlns="http://www.w3.org/2000/svg">
<mask id="mask0_130_2" style="mask-type:alpha" maskUnits="userSpaceOnUse" x="0" y="0" width="374" height="306">
<rect width="374" height="306" fill="#D9D9D9"/>
</mask>
<g mask="url(#mask0_130_2)">
<path d="M51.7188 54.7545C53.4027 71.1954 67.9776 83.6444 84.2726 82.5602C100.568 81.476 112.412 67.2692 110.728 50.8283C109.044 34.3875 94.4695 21.9385 78.1744 23.0227C61.8794 24.1068 50.0348 38.3137 51.7188 54.7545Z" fill="#C5C884"/>
<path d="M128.773 33.3114C129.387 39.3079 134.576 43.857 140.362 43.472C146.148 43.087 150.341 37.9138 149.727 31.9172C149.113 25.9207 143.924 21.3717 138.138 21.7566C132.352 22.1416 128.159 27.3149 128.773 33.3114Z" fill="#C5C884"/>
<circle cx="97" cy="304" r="2" fill="#C4C4C4"/>
<g clip-path="url(#clip0_130_2)">
<path d="M372.95 195.674C366.468 192.725 365.485 185.69 362.782 182.035C360.109 178.348 353.627 176.106 353.627 176.106C353.627 176.106 359.833 171.314 369.693 172.42C374.363 172.973 377.834 175.061 380.691 177.304C379.216 173.065 380.691 170.607 378.172 166.583C375.192 161.852 369.417 159.303 366.192 151.469C362.935 143.636 366.192 136.601 366.192 136.601C366.192 136.601 367.175 139.427 371.107 142.254C374.639 144.773 384.592 145.141 390.49 152.759C387.449 109.845 357.59 86.3758 336.947 74.1189C319.222 63.6131 307.764 41.6797 259.842 44.8438C211.921 48.0385 201.231 78.7882 189.373 102.042C182.799 114.944 167.931 117.801 155.398 126.648C164.675 124.222 170.573 128.707 177.546 130.12C185.933 131.809 187.254 125.911 194.78 125.942C202.275 125.973 205.101 128.614 205.101 128.614C205.101 128.614 197.575 127.478 195.148 133.867C192.691 140.257 189.68 142.684 182.154 141.67C174.628 140.656 172.478 141.209 168.484 144.773C164.491 148.367 155.275 145.725 149.992 147.046C146.889 147.814 142.65 153.343 139.701 157.736C142.066 155.801 145.322 153.681 149.715 151.746C161.941 146.278 177.546 156.261 177.546 156.261C177.546 156.261 165.228 159.088 158.101 163.972C150.944 168.856 145.875 164.156 140.991 165.846C138.533 166.706 136.567 167.566 135.185 168.211C135.185 168.232 135.185 168.242 135.185 168.242C134.202 183.448 139.946 196.964 149.715 208.545C173.614 236.868 221.567 253.641 253.883 255.668C287.643 257.757 346.931 245.193 375.069 207.808C377.558 204.521 379.8 200.988 381.766 197.302C378.94 197.271 375.714 196.903 372.95 195.674Z" fill="#C5C884"/>
<path d="M250.934 107.418C250.934 117.187 243.009 125.143 233.209 125.143C223.41 125.143 215.484 117.187 215.484 107.418C215.484 97.619 223.41 89.6628 233.209 89.6628C243.009 89.6628 250.934 97.619 250.934 107.418Z" fill="#8DAD78"/>
<path d="M361.83 89.6627C361.83 93.2261 358.942 96.1137 355.409 96.1137C351.846 96.1137 348.958 93.2261 348.958 89.6627C348.958 86.13 351.846 83.2425 355.409 83.2425C358.942 83.2425 361.83 86.13 361.83 89.6627Z" fill="#8DAD78"/>
<path d="M375.069 207.808C346.931 245.193 287.643 257.757 253.883 255.668C221.567 253.641 173.614 236.868 149.715 208.545C158.808 198.439 182.093 178.01 225.038 172.266C282.79 164.525 323.031 210.388 366.652 207.961C369.601 207.777 372.397 207.746 375.069 207.808Z" fill="#8DAD78"/>
<path d="M187.899 88.649C193.274 72.583 180.557 79.9863 175.765 90.2464C170.973 100.507 161.941 101.612 161.941 107.418C161.941 113.193 182.554 104.715 187.899 88.649Z" stroke="#8DAD78" stroke-width="0.614379"/>
<path d="M334.858 68.4667C334.858 68.4667 319.929 55.7797 313.846 51.6941C307.795 47.6085 310.467 42.1098 324.352 48.4379C338.268 54.7967 344.166 67.0536 342.354 69.6033C340.511 72.1529 334.858 68.4667 334.858 68.4667Z" stroke="#8DAD78" stroke-width="0.614379"/>
<path d="M196.132 106.435C196.132 106.988 195.702 107.418 195.179 107.418C194.626 107.418 194.196 106.988 194.196 106.435C194.196 105.913 194.626 105.483 195.179 105.483C195.702 105.483 196.132 105.913 196.132 106.435Z" fill="#8DAD78"/>
<path d="M204.21 108.278C204.21 108.801 203.78 109.231 203.258 109.231C202.705 109.231 202.275 108.801 202.275 108.278C202.275 107.726 202.705 107.295 203.258 107.295C203.78 107.295 204.21 107.726 204.21 108.278Z" fill="#8DAD78"/>
<path d="M231.243 79.4948C231.243 80.017 230.813 80.4471 230.291 80.4471C229.738 80.4471 229.308 80.017 229.308 79.4948C229.308 78.9418 229.738 78.5118 230.291 78.5118C230.813 78.5118 231.243 78.9418 231.243 79.4948Z" fill="#8DAD78"/>
<path d="M357.314 164.893C357.314 165.446 356.884 165.876 356.361 165.876C355.839 165.876 355.409 165.446 355.409 164.893C355.409 164.371 355.839 163.941 356.361 163.941C356.884 163.941 357.314 164.371 357.314 164.893Z" fill="#8DAD78"/>
<path d="M360.601 162.282C360.601 162.835 360.17 163.265 359.648 163.265C359.095 163.265 358.665 162.835 358.665 162.282C358.665 161.76 359.095 161.33 359.648 161.33C360.17 161.33 360.601 161.76 360.601 162.282Z" fill="#8DAD78"/>
<path d="M202.275 103.333C202.275 104.162 201.599 104.869 200.739 104.869C199.879 104.869 199.173 104.162 199.173 103.333C199.173 102.473 199.879 101.766 200.739 101.766C201.599 101.766 202.275 102.473 202.275 103.333Z" fill="#8DAD78"/>
<path d="M365.946 113.839C365.946 114.699 365.239 115.375 364.379 115.375C363.55 115.375 362.843 114.699 362.843 113.839C362.843 112.978 363.55 112.272 364.379 112.272C365.239 112.272 365.946 112.978 365.946 113.839Z" fill="#8DAD78"/>
<path d="M199.173 160.47C199.173 161.607 198.282 162.497 197.176 162.497C196.07 162.497 195.179 161.607 195.179 160.47C195.179 159.364 196.07 158.473 197.176 158.473C198.282 158.473 199.173 159.364 199.173 160.47Z" stroke="white" stroke-width="0.614379"/>
<path d="M312.802 74.764C312.802 75.8699 311.911 76.7608 310.805 76.7608C309.699 76.7608 308.778 75.8699 308.778 74.764C308.778 73.6581 309.699 72.7366 310.805 72.7366C311.911 72.7366 312.802 73.6581 312.802 74.764Z" stroke="white" stroke-width="0.614379"/>
<path d="M218.587 68.3131C218.587 71.8765 215.699 74.7333 212.167 74.7333C208.634 74.7333 205.746 71.8765 205.746 68.3131C205.746 64.7804 208.634 61.9235 212.167 61.9235C215.699 61.9235 218.587 64.7804 218.587 68.3131Z" stroke="white" stroke-width="0.614379"/>
<path d="M398.969 123.576C398.969 130.826 393.071 136.693 385.821 136.693C378.571 136.693 372.704 130.826 372.704 123.576C372.704 116.327 378.571 110.429 385.821 110.429C393.071 110.429 398.969 116.327 398.969 123.576Z" stroke="white" stroke-width="0.614379"/>
<path d="M152.695 187.472C152.695 194.722 146.827 200.62 139.578 200.62C132.328 200.62 126.43 194.722 126.43 187.472C126.43 180.222 132.328 174.355 139.578 174.355C146.827 174.355 152.695 180.222 152.695 187.472Z" stroke="white" stroke-width="0.614379"/>
<path d="M239.138 53.8137C239.138 53.8137 236.373 55.2575 236.25 61.3091C236.097 67.3915 241.903 70.1869 245.558 70.1255L245.251 69.1732C245.251 69.1732 239.015 68.4974 237.387 63.2137C235.79 57.8993 239.322 54.3359 239.322 54.3359L239.138 53.8137Z" fill="#3D2624"/>
<path d="M339.927 159.548C339.927 159.548 338.637 169.133 321.864 172.788C305.061 176.444 287.735 166.86 287.735 166.86L290.561 166.583C290.561 166.583 300.361 172.266 312.095 171.56C323.861 170.853 330.527 163.726 330.527 163.726L339.927 159.548Z" fill="#3D2624"/>
<path fill-rule="evenodd" clip-rule="evenodd" d="M348.559 154.418C337.223 175.123 323.891 170.853 305.214 169.286C286.537 167.72 278.765 166.859 261.962 167.904C245.159 168.948 234.376 168.242 228.263 158.504C222.181 148.766 224.423 124.037 237.387 113.593C250.381 103.148 252.193 84.5634 252.193 84.5634L291.145 62.1386C291.145 62.1386 289.732 82.9353 309.238 86.0686C328.745 89.202 345.087 101.397 344.043 113.224C344.043 113.224 359.894 133.714 348.559 154.418ZM343.183 112.272C343.183 112.272 342.937 98.602 319.069 91.1373C319.069 91.1373 325.151 94.4242 332.831 100.445C340.48 106.435 342.476 112.272 342.476 112.272H343.183Z" fill="#3D2624"/>
<path d="M238.769 102.688C238.769 102.688 233.24 107.664 229.308 118.108C225.406 128.553 217.143 160.931 217.143 160.931L230.506 169.286L243.408 133.959L238.769 102.688Z" fill="#C56E5D"/>
<path d="M292.036 152.913C289.978 158.934 290.5 165.508 293.418 171.129L294.155 174.232L296.122 182.71C282.636 194.414 263.928 198.346 252.439 195.797C240.92 193.278 238.001 183.847 238.001 183.847L239.783 171.406L236.711 143.697C236.711 143.697 234.346 140.073 233.332 131.686C232.318 123.3 238.769 102.688 238.769 102.688L259.72 94.3013L274.987 93.0111L300.484 102.688L303.771 110.951C303.678 115.528 300.299 127.263 296.797 138.383C295.138 143.636 293.418 148.766 292.036 152.913Z" fill="#F7DBC6"/>
<path d="M275.141 94.3627C272.745 98.7248 264.205 104.193 260.733 102.995C257.293 101.797 260.088 95.6529 260.088 95.6529C260.129 94.7723 260.16 93.9634 260.181 93.2261C260.334 88.3111 260.303 86.2222 260.303 86.2222L275.141 76.3921C274.803 78.2045 274.618 80.232 274.557 82.2902C274.373 88.2804 275.141 94.3627 275.141 94.3627Z" fill="#C56E5D"/>
<path d="M275.141 76.3921C274.803 78.2045 274.618 80.232 274.557 82.2902C272.867 84.8706 270.041 88.6797 267.092 90.7686C264.051 92.9496 261.563 93.2568 260.18 93.2261C260.334 88.3111 260.303 86.2222 260.303 86.2222L275.141 76.3921Z" fill="#AF5448"/>
<path d="M244.176 71.2006C244.176 71.2006 244.698 83.3346 253.238 88.8026C261.808 94.2706 273.758 82.8124 275.816 76.4843C277.874 70.1562 277.199 56.4863 277.199 56.4863C277.199 56.4863 265.894 48.9601 257.354 48.9601C248.814 48.9601 244.176 53.23 244.176 53.23C244.176 53.23 244.176 64.8725 244.176 71.2006Z" fill="#C56E5D"/>
<path d="M253.944 49.2059C253.944 49.2059 253.668 53.6602 261.901 58.8824C270.103 64.1046 274.557 65.149 274.557 65.149L276.277 74.7641C276.277 74.7641 275.079 77.7745 274.772 78.8497C274.403 80.0477 274.526 83.8569 274.526 83.8569C274.526 83.8569 281.469 82.8124 283.865 76.3922C283.865 76.3922 290.961 71.1085 291.206 61.5242C291.483 51.9399 286.506 48.9602 286.506 48.9602C286.506 48.9602 285.247 37.502 272.591 35.536C259.904 33.57 249.828 40.666 249.828 40.666C249.828 40.666 243.654 39.8059 240.336 44.168C236.988 48.5301 239.138 53.8138 239.138 53.8138C239.138 53.8138 236.22 56.6399 237.94 61.2785C239.66 65.8863 244.176 66.5007 244.176 66.5007C244.176 66.5007 244.606 58.6059 246.91 54.6739C249.214 50.7419 253.944 49.2059 253.944 49.2059Z" fill="#3D2624"/>
<path d="M275.141 66.5621C275.141 66.5621 276.769 62.5379 280.117 62.1386C283.435 61.7085 283.68 67.6065 281.377 71.5386C279.073 75.4706 275.816 74.7026 275.816 74.7026L275.141 66.5621Z" fill="#C56E5D"/>
<path d="M273.512 62.1078C273.512 62.1078 275.755 68.8046 274.465 74.0882C274.465 74.0882 274.803 73.7503 275.294 73.0438C276.369 71.4771 276.799 65.5484 277.291 63.5209L273.512 62.1078Z" fill="#3D2624"/>
<path d="M249.644 41.2497C249.644 41.2497 252.439 37.1948 257.754 35.5667C263.068 33.9079 267.492 35.5667 267.492 35.5667L268.352 35.5052C268.352 35.5052 263.406 33.1092 257.815 34.8294C252.224 36.519 248.354 40.9118 248.354 40.9118L249.644 41.2497Z" fill="#3D2624"/>
<path d="M286.507 48.9601C286.507 48.9601 289.486 49.5131 291.237 52.7078C292.988 55.9026 291.176 59.1588 291.176 59.1588L290.869 58.7595C290.869 58.7595 292.282 55.9948 290.531 53.015C288.78 50.0046 286.507 50.1582 286.507 50.1582V48.9601Z" fill="#3D2624"/>
<path d="M245.251 64.4425C245.251 64.4425 245.62 63.6438 248.139 63.7052C250.658 63.736 252.193 65.149 252.193 65.149C252.193 65.149 251.026 62.9987 248.722 62.6915C246.418 62.3843 245.312 64.1046 245.251 64.4425Z" fill="#3D2624"/>
<path d="M253.944 49.2059C253.944 49.2059 253.545 53.568 256.095 57.1006C258.675 60.6333 266.232 60.6333 266.232 60.6333L266.539 61.3091C266.539 61.3091 259.075 61.3706 256.033 58.698C253.023 56.0255 252.685 51.5405 253.238 49.2059H253.944Z" fill="#3D2624"/>
<path d="M259.013 64.719C259.013 64.719 259.443 63.7974 262.362 63.8588C265.28 63.9203 267.031 65.5484 267.031 65.5484C267.031 65.5484 265.679 63.0294 263.037 62.6915C260.365 62.3229 259.075 64.3196 259.013 64.719Z" fill="#3D2624"/>
<path d="M252.194 76.2386C252.194 76.2386 252.562 76.6072 254.037 77.0373C255.481 77.4673 256.494 77.0373 256.494 77.0373C256.494 77.0373 256.064 76.2386 254.928 76.0543C253.822 75.9007 252.194 76.2386 252.194 76.2386Z" fill="#913D37"/>
<path d="M252.194 65.149C252.194 65.149 252.992 66.0091 253.299 68.2516C253.576 70.4634 253.299 72.2143 253.299 72.2143C253.299 72.2143 252.286 66.4085 252.194 65.149Z" fill="#AF5448"/>
<path d="M245.558 67.6372C245.558 67.6372 246.818 68.1902 248.384 68.3438C249.92 68.5281 251.855 68.0366 251.855 68.0366C251.855 68.0366 251.149 66.1013 249.49 65.6405C246.879 64.934 245.558 67.6372 245.558 67.6372Z" fill="#AF5448"/>
<path d="M259.013 67.9445C259.013 67.9445 259.29 65.9784 261.809 65.5484C264.328 65.1183 267.307 67.7601 267.307 67.7601C267.307 67.7601 262.362 70.1255 259.013 67.9445Z" fill="#AF5448"/>
<path d="M248.784 68.3131C247.094 68.2824 245.558 67.6373 245.558 67.6373L245.251 67.8523C245.036 68.0059 244.575 68.0673 244.575 68.0673C245.036 68.2516 245.497 68.2516 245.773 68.1902C246.357 68.5281 247.401 68.9889 248.722 69.0196C250.811 69.0503 251.856 68.3131 251.856 68.3131V68.0366C251.856 68.0366 250.473 68.3438 248.784 68.3131Z" fill="#3D2624"/>
<path d="M267.307 67.7601C267.307 67.7601 265.28 68.3745 263.191 68.4359C261.071 68.4974 259.136 67.883 259.136 67.883L258.737 68.1288C258.491 68.2824 257.907 68.3745 257.907 68.3745C258.491 68.5588 259.075 68.5281 259.412 68.4667C260.18 68.8046 261.471 69.2346 263.129 69.1732C265.741 69.081 266.539 68.4667 267.123 68.098C267.215 68.0366 267.307 67.7601 267.307 67.7601Z" fill="#3D2624"/>
<path d="M252.193 80.1092C252.193 80.1092 252.624 80.3242 254.344 80.6621C256.064 81 260.18 80.1092 260.18 80.1092C260.18 80.1092 257.139 79.587 256.187 79.6484C255.204 79.7098 254.559 80.2013 254.559 80.2013C254.559 80.2013 253.668 79.4948 253.146 79.4948C252.593 79.4948 251.579 79.802 251.579 79.802L252.193 80.1092Z" fill="#913D37"/>
<path d="M252.808 81.9523C252.808 81.9523 253.975 82.751 255.695 82.7817C257.385 82.8431 259.259 82.1366 259.259 82.1366C259.259 82.1366 258.214 83.6111 256.033 83.8569C253.822 84.0719 252.808 81.9523 252.808 81.9523Z" fill="#AF5448"/>
<path d="M231.796 191.404L239.168 175.645C239.168 175.645 244.053 180.775 259.013 181.297C273.973 181.82 294.155 174.263 294.155 174.263C294.155 174.263 299.316 187.595 299.316 192.541C299.316 197.517 269.795 217.085 269.795 217.085L252.285 215.795L231.796 191.404Z" fill="#743F3D"/>
<path d="M230.967 217.085C230.967 217.085 226.144 218.959 224.485 219.758C224.485 219.758 217.266 220.495 214.348 221.324C211.46 222.184 210.723 226.086 210.016 230.294C209.31 234.472 203.903 240.093 202.214 243.042C200.524 245.961 201.323 249.432 201.569 250.139C201.814 250.876 200.831 253.303 202.06 254.839C203.258 256.344 203.965 255.576 204.61 255.176C205.286 254.808 205.501 253.487 205.501 253.487C205.501 253.487 207.374 253.118 208.081 252.565C208.757 252.043 208.05 252.012 209.771 251.459C211.491 250.907 212.382 250.476 213.365 249.77C214.317 249.063 219.754 239.602 223.225 236.561C226.697 233.55 232.963 232.506 232.963 232.506L230.967 217.085Z" fill="#C56E5D"/>
<path d="M325.612 234.073C313.816 237.052 288.196 239.141 265.249 240.493C241.595 241.875 220.799 242.52 220.799 242.52L217.266 231.4L214.163 221.539L282.912 207.9C282.912 207.9 281.039 193.677 295.999 185.997C295.999 185.997 340.572 186.366 351.354 198.899C362.167 211.433 350.494 227.806 325.612 234.073Z" fill="#743F3D"/>
<path d="M258.491 230.171C258.491 230.171 263.345 232.045 265.003 232.813C265.003 232.813 272.222 233.55 275.11 234.41C278.028 235.271 278.765 239.141 279.472 243.35C280.179 247.527 285.585 253.18 287.244 256.098C288.933 259.016 288.135 262.488 287.889 263.194C287.674 263.931 288.626 266.389 287.428 267.894C286.23 269.399 285.524 268.631 284.848 268.263C284.172 267.894 283.957 266.543 283.957 266.543C283.957 266.543 282.114 266.174 281.407 265.652C280.701 265.099 281.438 265.099 279.687 264.546C277.967 263.962 277.076 263.532 276.124 262.826C275.171 262.119 269.703 252.658 266.232 249.647C262.761 246.606 256.525 245.561 256.525 245.561L258.491 230.171Z" fill="#C56E5D"/>
<path d="M235.575 188.639C235.575 188.639 176.84 188.639 167.409 199.084C158.009 209.528 163.231 222.829 170.819 227.284C178.407 231.707 257.784 249.463 257.784 249.463L261.962 225.195L250.258 221.539L256.525 213.122L235.575 188.639Z" fill="#743F3D"/>
<path d="M235.421 190.882C235.421 190.882 247.678 206.057 254.344 210.573C254.344 210.573 240.643 209.159 235.421 190.882Z" fill="#5E3030"/>
<path d="M188.052 204.029C188.052 204.029 198.251 205.35 214.163 208.729C230.106 212.139 250.258 221.539 250.258 221.539C250.258 221.539 229.584 207.439 213.395 204.029C197.206 200.65 188.052 204.029 188.052 204.029Z" fill="#5E3030"/>
<path d="M244.882 218.099C244.882 218.099 292.251 203.968 312.095 200.742C312.095 200.742 270.133 213.337 250.258 221.539L244.882 218.099Z" fill="#5E3030"/>
<path d="M290.561 189.653C290.561 189.653 267.584 200.988 259.843 212.477C259.843 212.477 284.08 200.067 290.561 189.653Z" fill="#5E3030"/>
<path fill-rule="evenodd" clip-rule="evenodd" d="M187.376 193.585C187.376 193.585 185.441 196.657 181.755 198.101C179.113 199.114 176.778 199.329 173.645 200.743C170.512 202.186 166.641 205.658 165.812 204.122C164.982 202.616 169.682 199.176 169.682 199.176C169.682 199.176 166.426 200.865 164.583 201.756C162.771 202.678 160.774 203.968 160.927 201.756C161.081 199.575 166.887 196.38 166.887 196.38C166.887 196.38 161.02 197.978 160.098 198.408C159.176 198.869 156.381 199.176 157.426 197.118C158.501 195.06 164.214 193.616 164.214 193.616C162.525 193.554 159.729 191.957 159.729 190.36C159.729 188.762 162.31 185.936 163.324 184.431C163.999 183.448 164.829 182.864 165.382 183.079C165.044 182.557 165.075 182.127 165.873 182.28C167.563 182.588 174.014 182.526 177.301 183.11C179.205 183.478 180.434 183.97 181.11 184.339L217.45 159.702C226.605 159.794 230.506 169.286 230.506 169.286C221.69 180.345 193.889 191.158 187.376 193.585ZM173.43 186.305C172.509 185.782 169.007 185.414 167.409 184.738C166.795 184.461 166.211 184.031 165.781 183.571C165.843 183.786 165.873 184.031 165.873 184.339C165.873 186.397 162.986 189.069 163.385 189.53C163.754 189.96 166.733 190.882 169.314 189.96C171.894 189.069 174.321 186.858 173.43 186.305Z" fill="#C56E5D"/>
<path d="M350.156 138.045C350.156 138.045 353.443 148.152 351.201 155.678C348.927 163.204 340.265 164.893 340.265 164.893L341.647 163.173C341.647 163.173 350.187 161.729 350.678 150.025C351.108 139.612 350.156 138.045 350.156 138.045Z" fill="#3D2624"/>
<path d="M173.891 186.212C173.891 186.212 176.778 187.841 179.973 187.841C183.168 187.841 179.328 189.254 176.932 188.547C174.567 187.841 173.891 186.212 173.891 186.212Z" fill="#AF5448"/>
<path d="M183.998 191.895C183.998 191.895 182.032 191.957 179.298 193.37C176.533 194.814 175.12 198.469 174.383 197.886C173.676 197.302 175.642 191.68 183.998 191.895Z" fill="#AF5448"/>
<path d="M165.074 193.524C165.074 193.524 171.065 198.377 171.771 198.439C172.508 198.5 169.314 193.8 165.074 193.524Z" fill="#AF5448"/>
<path d="M238.892 141.455C238.892 141.455 241.841 139.888 250.872 139.888C259.904 139.888 274.925 143.421 274.925 143.421C274.925 143.421 247.217 143.575 238.892 141.455Z" fill="#EFC9B6"/>
<path d="M293.418 171.314L294.156 174.416L281.346 178.348C281.346 178.348 287.858 162.62 287.735 150.578C287.613 138.567 291.545 123.576 291.545 123.576L296.798 138.537C295.139 143.82 293.418 148.92 292.036 153.067C290.009 159.088 290.5 165.661 293.418 171.314Z" fill="#EFC9B6"/>
<path fill-rule="evenodd" clip-rule="evenodd" d="M356.669 209.467C355.87 208.822 350.402 206.18 350.402 206.18C350.402 206.18 355.501 210.388 355.225 212.6C354.979 214.781 353.259 213.153 351.631 211.893C350.033 210.665 347.115 208.422 347.115 208.422C347.115 208.422 351.109 212.661 350.003 214.013C348.897 215.334 345.733 211.218 342.937 209.221C340.142 207.255 337.869 206.61 335.473 205.105C332.093 203.016 330.527 200.282 330.527 200.282C327.486 196.81 305.706 178.225 301.559 166.583C301.559 166.583 289.916 125.696 291.237 116.542C292.558 107.418 300.484 102.688 300.484 102.688C300.484 102.688 306.873 106.097 309.761 118.385C311.942 127.754 313.816 148.92 315.167 157.275L339.497 191.496C340.265 191.342 341.278 191.22 342.63 191.22C345.948 191.25 352.307 192.51 353.996 192.54C354.826 192.54 354.795 192.94 354.365 193.401C354.918 193.278 355.624 194.015 356.116 195.09C356.822 196.78 358.85 200.036 358.542 201.603C358.266 203.169 355.194 204.214 353.535 203.968C353.535 203.968 358.88 206.456 359.526 208.668C360.201 210.88 357.498 210.081 356.669 209.467ZM355.133 200.097C355.593 199.729 353.228 196.565 353.627 194.537C353.689 194.23 353.75 193.984 353.873 193.8C353.351 194.169 352.706 194.507 352.061 194.629C350.341 194.998 346.839 194.722 345.856 195.09C344.842 195.428 346.839 198.07 349.204 199.452C351.569 200.835 354.672 200.466 355.133 200.097Z" fill="#C56E5D"/>
<path d="M345.088 195.428C345.088 195.428 342.2 197.056 339.005 197.056C335.81 197.056 339.65 198.469 342.046 197.763C344.412 197.056 345.088 195.428 345.088 195.428Z" fill="#AF5448"/>
<path d="M332.923 199.698C332.923 199.698 334.889 199.79 337.623 201.203C340.357 202.647 341.801 206.303 342.507 205.719C343.244 205.135 341.278 199.514 332.923 199.698Z" fill="#AF5448"/>
<path d="M351.108 203.046C351.108 203.046 345.118 207.9 344.381 207.961C343.674 208.023 346.869 203.292 351.108 203.046Z" fill="#AF5448"/>
<path d="M257.569 98.1105C257.569 98.1105 254.712 103.517 259.259 105.022C263.775 106.497 271.546 101.336 275.478 97.5268C275.478 97.5268 270.256 105.913 261.809 107.265C253.33 108.616 255.296 99.9536 257.569 98.1105Z" fill="#EFC9B6"/>
</g>
</g>
<defs>
<clipPath id="clip0_130_2">
<rect width="273.399" height="235" fill="white" transform="translate(126 34)"/>
</clipPath>
</defs>
</svg>
